<svg width="30" height="31" viewBox="0 0 30 31" fill="none" xmlns="http://www.w3.org/2000/svg">
<path d="M21.5 13.0587L15.5 15.6321L9.5 13.0587V12.0293L15.5 14.6027L21.5 12.0293M21.5 11H9.5C8.6675 11 8 11.4581 8 12.0293V18.2054C8 18.4784 8.15804 18.7402 8.43934 18.9333C8.72064 19.1263 9.10218 19.2348 9.5 19.2348H21.5C21.8978 19.2348 22.2794 19.1263 22.5607 18.9333C22.842 18.7402 23 18.4784 23 18.2054V12.0293C23 11.7563 22.842 11.4945 22.5607 11.3015C22.2794 11.1084 21.8978 11 21.5 11Z" fill="#7F5AF0"/>
<circle cx="15" cy="15.3876" r="14.5" stroke="#7F5AF0"/>
</svg>
