<svg width="30" height="31" viewBox="0 0 30 31" fill="none" xmlns="http://www.w3.org/2000/svg">
<path d="M22.0597 21.2935C14.0619 21.3012 7.99157 17.086 8.00001 11.6453C8.00001 11.2895 8.42001 11 8.93751 11H11.4125C11.8766 11 12.2713 11.2342 12.3397 11.5494C12.5029 12.3054 12.8234 13.0414 13.2913 13.7348L13.3878 13.8777C13.4527 13.9738 13.4666 14.0824 13.4273 14.1848C13.3879 14.2872 13.2977 14.377 13.1722 14.4387C12.4053 14.8144 12.1128 15.5703 12.71 16.1596C13.4619 16.9016 14.4003 17.5458 15.4813 18.062C16.3409 18.4711 17.4425 18.2704 17.9891 17.7448C18.0788 17.6584 18.2097 17.5963 18.3592 17.5691C18.5087 17.542 18.6672 17.5516 18.8075 17.5962L19.0147 17.6618C20.0253 17.9835 21.0978 18.2035 22.1994 18.3154C22.6588 18.3624 23 18.6332 23 18.9523V20.6501C23 20.7347 22.9757 20.8184 22.9285 20.8965C22.8814 20.9746 22.8122 21.0455 22.7251 21.1053C22.6379 21.165 22.5345 21.2124 22.4206 21.2447C22.3068 21.277 22.1848 21.2935 22.0616 21.2935H22.0597Z" fill="#7F5AF0"/>
<circle cx="15" cy="15.3876" r="14.5" stroke="#7F5AF0"/>
</svg>
